<svg width="105" height="102" viewBox="0 0 105 102" fill="none" xmlns="http://www.w3.org/2000/svg">
<path d="M90.44 68.36L100.32 68.77L104.28 61.9L84.9 50.73L104.27 39.53L100.28 32.62L90.41 33.08L82.16 33.47L82.11 33.39L86.54 26.39L91.84 18.04L87.87 11.17L68.5 22.37V0H60.51L55.98 8.77L52.19 16.12H52.09L48.25 8.78L43.66 0.01H35.73V22.39L16.36 11.21L12.38 18.12L17.71 26.43L22.17 33.38L22.12 33.47L13.84 33.13L3.96 32.72L0 39.59L19.38 50.76L0 61.96L4 68.87L13.86 68.41L22.12 68.02L22.17 68.11L17.74 75.11L12.44 83.47L16.41 90.34L35.78 79.14V101.51H43.78L48.31 92.74L52.1 85.39H52.2L56.05 92.73L60.64 101.49H68.57V79.12L87.94 90.29L91.93 83.37L86.6 75.06L82.13 68.1L82.18 68.02L90.46 68.35H90.43L90.44 68.36ZM78.17 73.46L81.26 78.14L81.18 78.27L76.57 75.61L68.52 70.97L61.8 67.09L61.64 67L61.58 67.1H61.47V75.05L61.49 84.34V90.01H61.35L58.73 84.59L52.17 72.47L45.47 84.64L42.96 89.67H42.81V67.11H42.7L42.65 67.02L42.49 67.11L35.77 70.99L27.72 75.64L22.81 78.48L22.74 78.35L26.13 73.38L33.34 61.64L19.45 61.93L13.84 62.27L13.77 62.14L18.37 59.48L26.42 54.83L33.14 50.94L33.3 50.85L33.25 50.76L33.31 50.66L33.15 50.57L26.43 46.69L18.38 42.05L13.47 39.22L13.54 39.09L19.54 39.54L33.32 39.92L26.12 28.04L23.03 23.35L23.1 23.22L27.71 25.88L35.76 30.52L42.48 34.4L42.64 34.49L42.7 34.39H42.8V11.48H42.95L45.57 16.9L52.13 29.02L58.83 16.85L61.34 11.82H61.49V34.39H61.59L61.64 34.48L61.8 34.39L68.52 30.5L76.57 25.84L81.47 23.01L81.54 23.13L78.16 28.11L70.95 39.85L84.84 39.56L90.45 39.22L90.52 39.35L85.91 42.01L77.86 46.66L71.14 50.55L70.97 50.64L71.02 50.74L70.97 50.83L71.12 50.92L77.86 54.8L85.91 59.44L90.82 62.27L90.75 62.39L84.75 61.95L70.98 61.57L78.18 73.45L78.17 73.46Z" fill="#899FF5"/>
</svg>
