<?xml version="1.0" encoding="UTF-8"?>
<svg id="Brandmarks" xmlns="http://www.w3.org/2000/svg" viewBox="0 0 295.08 67.67">
  <defs>
    <style>
      .cls-1 {
        fill: #4c3a59;
      }
    </style>
  </defs>
  <g id="landscape_spacing" data-name="landscape spacing">
    <g id="mark">
      <g>
        <path class="cls-1" d="M86.26,60.21V9.95h11.59l6.7,12.82,5.62,10.73h.14l5.54-10.73,6.62-12.82h11.66v50.26h-10.3V27.23h-.22l-3.67,7.34-9.79,17.78-9.58-17.71-3.82-7.92h-.22v33.48h-10.3.03Z"/>
        <path class="cls-1" d="M165.83,60.21v-6.34h-.36c-.53,2.06-1.74,3.78-3.64,5.15s-4.07,2.05-6.52,2.05c-3.17,0-5.83-.76-7.99-2.27-2.16-1.51-3.79-3.74-4.9-6.7-1.1-2.95-1.66-6.56-1.66-10.84s.55-7.87,1.66-10.8c1.1-2.93,2.74-5.15,4.9-6.66,2.16-1.51,4.82-2.27,7.99-2.27,2.45,0,4.62.67,6.52,2.02,1.9,1.34,3.11,3.07,3.64,5.18h.36v-6.34h10.66v37.8h-10.66v.02ZM158.85,52.43c1.34,0,2.54-.22,3.6-.65,1.06-.43,1.88-1.07,2.48-1.91.6-.84.9-1.84.9-2.99v-11.16c0-1.15-.3-2.15-.9-2.99-.6-.84-1.43-1.48-2.48-1.91s-2.26-.65-3.6-.65c-2.02,0-3.68.71-5,2.12-1.32,1.42-1.98,3.32-1.98,5.72v6.55c0,2.35.66,4.25,1.98,5.69,1.32,1.44,2.99,2.16,5,2.16v.02Z"/>
        <path class="cls-1" d="M206.01,60.21h-6.34c-3.65,0-6.43-.94-8.35-2.81-1.92-1.87-2.88-4.61-2.88-8.21v-18.5h-5.33v-8.28h2.66c1.44,0,2.42-.35,2.95-1.04s.79-1.69.79-2.99v-6.19h9.58v10.22h7.49v8.28h-7.49v21.24h6.91v8.28h.01Z"/>
        <path class="cls-1" d="M221.99,59.88h-10.66V22.08h10.66v8.21h.36c.29-1.39.82-2.71,1.58-3.96.77-1.25,1.81-2.27,3.13-3.06s2.96-1.19,4.93-1.19h1.87v9.94h-2.66c-2.06,0-3.78.18-5.15.54s-2.39.95-3.06,1.76c-.67.82-1.01,1.97-1.01,3.46v22.1h.01Z"/>
        <path class="cls-1" d="M245.75,18.69c-2.16,0-3.73-.5-4.72-1.51-.98-1.01-1.48-2.26-1.48-3.74v-1.58c0-1.54.49-2.8,1.48-3.78.98-.98,2.56-1.48,4.72-1.48s3.73.49,4.72,1.48c.98.98,1.48,2.24,1.48,3.78v1.58c0,1.49-.49,2.74-1.48,3.74-.98,1.01-2.56,1.51-4.72,1.51ZM240.42,59.88V22.08h10.66v37.8s-10.66,0-10.66,0Z"/>
        <path class="cls-1" d="M257.34,59.88l12.46-19.22-12.31-18.58h12.1l7.06,11.88h.29l6.84-11.88h11.23l-12.53,18.94,12.6,18.86h-12.1l-7.27-12.31h-.29l-6.98,12.31h-11.1Z"/>
      </g>
      <path class="cls-1" d="M60.28,45.57l6.59.27,2.64-4.58-12.91-7.45,12.91-7.46-2.66-4.6-6.57.31-5.5.26-.04-.06,2.96-4.67,3.53-5.56-2.65-4.58-12.91,7.46V0h-5.32l-3.02,5.84-2.52,4.9h-.07l-2.56-4.89L29.12.01h-5.29v14.91l-12.92-7.45-2.65,4.61,3.55,5.54,2.97,4.63-.03.06-5.52-.23-6.59-.27L0,26.39l12.91,7.45L0,41.3l2.66,4.6,6.57-.31,5.5-.26.03.06-2.95,4.66-3.53,5.57,2.65,4.58,12.91-7.46v14.91h5.33l3.02-5.84,2.52-4.9h.06l2.56,4.89,3.06,5.84h5.29v-14.9l12.91,7.45,2.66-4.61-3.55-5.53-2.98-4.64.03-.05,5.52.22h.01ZM52.11,48.97l2.06,3.12-.05.09-3.07-1.77-5.36-3.09-4.48-2.58-.11-.06-.04.06h-.07v11.49s.01,3.78.01,3.78h-.1l-1.74-3.61-4.37-8.07-4.46,8.11-1.67,3.35h-.1v-15.03h-.07l-.04-.06-.11.06-4.48,2.59-5.36,3.1-3.27,1.89-.05-.09,2.26-3.31,4.81-7.82-9.25.19-3.74.23-.05-.09,3.07-1.78,5.36-3.1,4.48-2.59.11-.06-.04-.06.04-.06-.11-.06-4.48-2.58-5.36-3.09-3.27-1.89.05-.09,4,.3,9.18.25-4.8-7.92-2.06-3.13.05-.09,3.07,1.77,5.36,3.09,4.48,2.59.11.06.04-.06h.07V7.68h.1l1.74,3.61,4.37,8.07,4.46-8.11,1.67-3.35h.1v15.04h.07l.04.06.11-.06,4.48-2.59,5.37-3.1,3.27-1.89.05.08-2.25,3.32-4.81,7.82,9.25-.19,3.74-.23.05.09-3.07,1.77-5.36,3.1-4.48,2.59-.11.06.04.06-.03.06.1.06,4.49,2.58,5.36,3.09,3.27,1.89-.05.08-4-.29-9.18-.25,4.8,7.92h-.04Z"/>
    </g>
  </g>
</svg>