<svg width="295" height="68" viewBox="0 0 295 68" fill="none" xmlns="http://www.w3.org/2000/svg">
<path d="M86.238 60.1955V9.94754H97.8253L104.524 22.7645L110.142 33.4919H110.282L115.821 22.7645L122.439 9.94754H134.097V60.1955H123.799V27.2234H123.579L119.91 34.5617L110.122 52.3374L100.545 34.6316L96.7255 26.7135H96.5056V60.1855H86.208H86.238V60.1955Z" fill="#3D2E9E"/>
<path d="M165.788 60.1953V53.8568H165.428C164.898 55.9163 163.689 57.6359 161.789 59.0056C159.89 60.3753 157.72 61.0551 155.271 61.0551C152.101 61.0551 149.442 60.2953 147.283 58.7856C145.123 57.276 143.493 55.0465 142.384 52.0872C141.284 49.1379 140.724 45.5288 140.724 41.2498C140.724 36.9708 141.274 33.3817 142.384 30.4524C143.483 27.5231 145.123 25.3036 147.283 23.794C149.442 22.2844 152.101 21.5245 155.271 21.5245C157.72 21.5245 159.89 22.1944 161.789 23.5441C163.689 24.8837 164.898 26.6133 165.428 28.7228H165.788V22.3843H176.446V60.1753H165.788V60.1953ZM158.81 52.4172C160.149 52.4172 161.349 52.1972 162.409 51.7673C163.469 51.3374 164.288 50.6976 164.888 49.8578C165.488 49.018 165.788 48.0182 165.788 46.8685V35.7112C165.788 34.5614 165.488 33.5617 164.888 32.7219C164.288 31.8821 163.459 31.2422 162.409 30.8123C161.359 30.3824 160.149 30.1625 158.81 30.1625C156.79 30.1625 155.131 30.8723 153.811 32.282C152.491 33.7016 151.831 35.6012 151.831 38.0006V44.549C151.831 46.8985 152.491 48.798 153.811 50.2377C155.131 51.6773 156.8 52.3972 158.81 52.3972V52.4172Z" fill="#3D2E9E"/>
<path d="M205.958 60.1954H199.619C195.97 60.1954 193.191 59.2557 191.271 57.3861C189.352 55.5165 188.392 52.7772 188.392 49.1781V30.6825H183.063V22.4045H185.723C187.162 22.4045 188.142 22.0545 188.672 21.3647C189.202 20.6749 189.462 19.6751 189.462 18.3754V12.1869H199.04V22.4045H206.528V30.6825H199.04V51.9174H205.948V60.1954H205.958Z" fill="#3D2E9E"/>
<path d="M221.934 59.8654H211.276V22.0744H221.934V30.2824H222.294C222.583 28.8927 223.113 27.5731 223.873 26.3234C224.643 25.0737 225.683 24.0539 227.002 23.2641C228.322 22.4743 229.962 22.0744 231.931 22.0744H233.801V32.012H231.141C229.082 32.012 227.362 32.192 225.993 32.5519C224.623 32.9118 223.603 33.5016 222.933 34.3115C222.264 35.1313 221.924 36.281 221.924 37.7706V59.8654H221.934Z" fill="#3D2E9E"/>
<path d="M245.688 18.6854C243.528 18.6854 241.958 18.1856 240.969 17.1758C239.989 16.166 239.489 14.9163 239.489 13.4367V11.8571C239.489 10.3174 239.979 9.05774 240.969 8.07797C241.948 7.09821 243.528 6.59833 245.688 6.59833C247.847 6.59833 249.417 7.08821 250.406 8.07797C251.386 9.05774 251.886 10.3174 251.886 11.8571V13.4367C251.886 14.9263 251.396 16.176 250.406 17.1758C249.427 18.1856 247.847 18.6854 245.688 18.6854ZM240.359 59.8656V22.0746H251.016V59.8656H240.359Z" fill="#3D2E9E"/>
<path d="M257.274 59.8654L269.731 40.6499L257.424 22.0744H269.521L276.58 33.9515H276.87L283.708 22.0744H294.935L282.408 41.0099L295.005 59.8654H282.908L275.64 47.5583H275.35L268.372 59.8654H257.274Z" fill="#3D2E9E"/>
<path d="M60.2646 45.5584L66.853 45.8283L69.4923 41.2495L56.5856 33.8014L69.4923 26.3433L66.833 21.7445L60.2646 22.0544L54.766 22.3143L54.7261 22.2543L57.6853 17.5855L61.2144 12.0269L58.5651 7.4481L45.6584 14.9062V0H40.3397L37.3205 5.83851L34.8011 10.7373H34.7311L32.1718 5.84851L29.1126 0.00999745H23.8239V14.9162L10.9072 7.4681L8.2579 12.0769L11.807 17.6155L14.7762 22.2443L14.7462 22.3043L9.22765 22.0744L2.63933 21.8044L0 26.3833L12.9067 33.8314L0 41.2895L2.65932 45.8883L9.22765 45.5784L14.7262 45.3185L14.7562 45.3784L11.807 50.0373L8.27789 55.6058L10.9272 60.1847L23.8339 52.7266V67.6328H29.1626L32.1818 61.7943L34.7012 56.8955H34.7611L37.3205 61.7843L40.3797 67.6228H45.6684V52.7266L58.5751 60.1747L61.2344 55.5658L57.6853 50.0373L54.7061 45.3984L54.736 45.3484L60.2546 45.5684H60.2646V45.5584ZM52.0967 48.9575L54.1562 52.0767L54.1062 52.1667L51.037 50.3972L45.6784 47.3079L41.1995 44.7286L41.0895 44.6686L41.0495 44.7286H40.9796V59.9947H40.8896L39.15 56.3856L34.7811 48.3177L30.3223 56.4256L28.6527 59.7748H28.5527V44.7486H28.4827L28.4427 44.6886L28.3328 44.7486L23.8539 47.3379L18.4953 50.4371L15.2261 52.3267L15.1761 52.2367L17.4356 48.9275L22.2443 41.1095L12.9967 41.2995L9.25764 41.5294L9.20765 41.4394L12.2769 39.6599L17.6355 36.5607L22.1144 33.9713L22.2243 33.9114L22.1843 33.8514L22.2243 33.7914L22.1144 33.7314L17.6355 31.1521L12.2769 28.0628L9.0077 26.1733L9.05769 26.0834L13.0567 26.3833L22.2343 26.6332L17.4356 18.7152L15.3761 15.586L15.4261 15.4961L18.4953 17.2656L23.8539 20.3548L28.3328 22.9442L28.4427 23.0041L28.4827 22.9442H28.5527V7.67804H28.6527L30.3923 11.2871L34.7611 19.3551L39.22 11.2471L40.8896 7.89799H40.9896V22.9342H41.0595L41.0995 22.9941L41.2095 22.9342L45.6884 20.3448L51.057 17.2456L54.3261 15.3561L54.3761 15.4361L52.1267 18.7552L47.3179 26.5732L56.5656 26.3833L60.3046 26.1533L60.3546 26.2433L57.2854 28.0129L51.9268 31.1121L47.4479 33.7014L47.3379 33.7614L47.3779 33.8214L47.3479 33.8814L47.4479 33.9414L51.9368 36.5207L57.2954 39.6099L60.5646 41.4994L60.5146 41.5794L56.5156 41.2895L47.3379 41.0395L52.1367 48.9575H52.0967Z" fill="#3D2E9E"/>
</svg>
